<svg xmlns="http://www.w3.org/2000/svg" width="900" height="446" viewBox="0 0 900 446" role="img" aria-label="Student accuracy by training condition">
<title>Student accuracy by training condition</title>
<rect x="0.0" y="0.0" width="900.0" height="446.0" rx="10" fill="#0d1117"/>
<text x="24.0" y="36.0" font-family='system-ui, -apple-system, "Segoe UI", Helvetica, Arial, sans-serif' font-size="18" fill="#f0f0ee" text-anchor="start" font-weight="700" style="">Plain distillation from the 7B matched the oracle; forged traces trailed both</text>
<text x="24.0" y="58.0" font-family='system-ui, -apple-system, "Segoe UI", Helvetica, Arial, sans-serif' font-size="12.5" fill="#9a9992" text-anchor="start" font-weight="normal" style="">Qwen3.5-2B accuracy (%) after fine-tuning on 3,616 problems per condition · dashed: the untrained student, thinking on and off</text>
<rect x="24.0" y="77.0" width="12.0" height="12.0" rx="3" fill="#6e6d68"/>
<text x="42.0" y="87.0" font-family='system-ui, -apple-system, "Segoe UI", Helvetica, Arial, sans-serif' font-size="12" fill="#c3c2b7" text-anchor="start" font-weight="normal" style="">no trace</text>
<rect x="119.7" y="77.0" width="12.0" height="12.0" rx="3" fill="#3987e5"/>
<text x="137.7" y="87.0" font-family='system-ui, -apple-system, "Segoe UI", Helvetica, Arial, sans-serif' font-size="12" fill="#c3c2b7" text-anchor="start" font-weight="normal" style="">forged traces (the attack)</text>
<rect x="340.6" y="77.0" width="12.0" height="12.0" rx="3" fill="#d95926"/>
<text x="358.6" y="87.0" font-family='system-ui, -apple-system, "Segoe UI", Helvetica, Arial, sans-serif' font-size="12" fill="#c3c2b7" text-anchor="start" font-weight="normal" style="">plain distillation</text>
<rect x="505.9" y="77.0" width="12.0" height="12.0" rx="3" fill="#199e70"/>
<text x="523.9" y="87.0" font-family='system-ui, -apple-system, "Segoe UI", Helvetica, Arial, sans-serif' font-size="12" fill="#c3c2b7" text-anchor="start" font-weight="normal" style="">oracle (victim's real traces)</text>
<text x="256.0" y="120.0" font-family='system-ui, -apple-system, "Segoe UI", Helvetica, Arial, sans-serif' font-size="13" fill="#f0f0ee" text-anchor="start" font-weight="700" style="">MATH500</text>
<line x1="256.0" y1="132.0" x2="256.0" y2="356.0" stroke="#45443f" stroke-width="1.0"/>
<text x="256.0" y="371.0" font-family='system-ui, -apple-system, "Segoe UI", Helvetica, Arial, sans-serif' font-size="12" fill="#9a9992" text-anchor="middle" font-weight="normal" style="font-variant-numeric: tabular-nums;">0</text>
<line x1="325.5" y1="132.0" x2="325.5" y2="356.0" stroke="#2a2a28" stroke-width="1.0"/>
<text x="325.5" y="371.0" font-family='system-ui, -apple-system, "Segoe UI", Helvetica, Arial, sans-serif' font-size="12" fill="#9a9992" text-anchor="middle" font-weight="normal" style="font-variant-numeric: tabular-nums;">20</text>
<line x1="395.0" y1="132.0" x2="395.0" y2="356.0" stroke="#2a2a28" stroke-width="1.0"/>
<text x="395.0" y="371.0" font-family='system-ui, -apple-system, "Segoe UI", Helvetica, Arial, sans-serif' font-size="12" fill="#9a9992" text-anchor="middle" font-weight="normal" style="font-variant-numeric: tabular-nums;">40</text>
<line x1="464.5" y1="132.0" x2="464.5" y2="356.0" stroke="#2a2a28" stroke-width="1.0"/>
<text x="464.5" y="371.0" font-family='system-ui, -apple-system, "Segoe UI", Helvetica, Arial, sans-serif' font-size="12" fill="#9a9992" text-anchor="middle" font-weight="normal" style="font-variant-numeric: tabular-nums;">60</text>
<line x1="534.0" y1="132.0" x2="534.0" y2="356.0" stroke="#2a2a28" stroke-width="1.0"/>
<line x1="491.6" y1="130.0" x2="491.6" y2="380.0" stroke="#c3c2b7" stroke-width="1.5" stroke-dasharray="4 3"/>
<text x="487.6" y="392.0" font-family='system-ui, -apple-system, "Segoe UI", Helvetica, Arial, sans-serif' font-size="12" fill="#c3c2b7" text-anchor="end" font-weight="600" style="" paint-order="stroke" stroke="#0d1117" stroke-width="3" stroke-linejoin="round">thinking on · 67.8</text>
<line x1="530.5" y1="130.0" x2="530.5" y2="396.0" stroke="#9a9992" stroke-width="1.2" stroke-dasharray="2 3"/>
<text x="526.5" y="410.0" font-family='system-ui, -apple-system, "Segoe UI", Helvetica, Arial, sans-serif' font-size="12" fill="#9a9992" text-anchor="end" font-weight="600" style="" paint-order="stroke" stroke="#0d1117" stroke-width="3" stroke-linejoin="round">thinking off · 79.0</text>
<path d="M256.0,139.0 H440.3 a4,4 0 0 1 4,4 V153.0 a4,4 0 0 1 -4,4 H256.0 Z" fill="#6e6d68"/>
<path d="M256.0,171.0 H442.4 a4,4 0 0 1 4,4 V185.0 a4,4 0 0 1 -4,4 H256.0 Z" fill="#6e6d68"/>
<path d="M256.0,203.0 H464.0 a4,4 0 0 1 4,4 V217.0 a4,4 0 0 1 -4,4 H256.0 Z" fill="#3987e5"/>
<path d="M256.0,235.0 H468.1 a4,4 0 0 1 4,4 V249.0 a4,4 0 0 1 -4,4 H256.0 Z" fill="#d95926"/>
<path d="M256.0,267.0 H475.8 a4,4 0 0 1 4,4 V281.0 a4,4 0 0 1 -4,4 H256.0 Z" fill="#3987e5"/>
<path d="M256.0,299.0 H502.2 a4,4 0 0 1 4,4 V313.0 a4,4 0 0 1 -4,4 H256.0 Z" fill="#d95926"/>
<path d="M256.0,331.0 H507.1 a4,4 0 0 1 4,4 V345.0 a4,4 0 0 1 -4,4 H256.0 Z" fill="#199e70"/>
<path d="M544.065,308.0 H549.065 V340.0 H544.065" fill="none" stroke="#c3c2b7" stroke-width="1.4"/>
<text x="555.1" y="328.0" font-family='system-ui, -apple-system, "Segoe UI", Helvetica, Arial, sans-serif' font-size="13" fill="#c3c2b7" text-anchor="start" font-weight="700" style="">tie</text>
<text x="450.3" y="152.5" font-family='system-ui, -apple-system, "Segoe UI", Helvetica, Arial, sans-serif' font-size="13" fill="#f0f0ee" text-anchor="start" font-weight="normal" style="font-variant-numeric: tabular-nums;" paint-order="stroke" stroke="#0d1117" stroke-width="3" stroke-linejoin="round">54.2</text>
<text x="452.4" y="184.5" font-family='system-ui, -apple-system, "Segoe UI", Helvetica, Arial, sans-serif' font-size="13" fill="#f0f0ee" text-anchor="start" font-weight="normal" style="font-variant-numeric: tabular-nums;" paint-order="stroke" stroke="#0d1117" stroke-width="3" stroke-linejoin="round">54.8</text>
<text x="474.0" y="216.5" font-family='system-ui, -apple-system, "Segoe UI", Helvetica, Arial, sans-serif' font-size="13" fill="#f0f0ee" text-anchor="start" font-weight="normal" style="font-variant-numeric: tabular-nums;" paint-order="stroke" stroke="#0d1117" stroke-width="3" stroke-linejoin="round">61.0</text>
<text x="478.1" y="248.5" font-family='system-ui, -apple-system, "Segoe UI", Helvetica, Arial, sans-serif' font-size="13" fill="#f0f0ee" text-anchor="start" font-weight="normal" style="font-variant-numeric: tabular-nums;" paint-order="stroke" stroke="#0d1117" stroke-width="3" stroke-linejoin="round">62.2</text>
<line x1="479.8" y1="276.0" x2="491.6" y2="276.0" stroke="#f0f0ee" stroke-width="1.6"/>
<line x1="479.8" y1="271.0" x2="479.8" y2="281.0" stroke="#f0f0ee" stroke-width="1.6"/>
<line x1="491.6" y1="271.0" x2="491.6" y2="281.0" stroke="#f0f0ee" stroke-width="1.6"/>
<text x="497.6" y="280.5" font-family='system-ui, -apple-system, "Segoe UI", Helvetica, Arial, sans-serif' font-size="13" fill="#f0f0ee" text-anchor="start" font-weight="normal" style="font-variant-numeric: tabular-nums;" paint-order="stroke" stroke="#0d1117" stroke-width="3" stroke-linejoin="round">64.4</text>
<text x="512.2" y="312.5" font-family='system-ui, -apple-system, "Segoe UI", Helvetica, Arial, sans-serif' font-size="13" fill="#f0f0ee" text-anchor="start" font-weight="normal" style="font-variant-numeric: tabular-nums;" paint-order="stroke" stroke="#0d1117" stroke-width="3" stroke-linejoin="round">72.0</text>
<text x="517.1" y="344.5" font-family='system-ui, -apple-system, "Segoe UI", Helvetica, Arial, sans-serif' font-size="13" fill="#f0f0ee" text-anchor="start" font-weight="normal" style="font-variant-numeric: tabular-nums;" paint-order="stroke" stroke="#0d1117" stroke-width="3" stroke-linejoin="round">73.4</text>
<text x="578.0" y="120.0" font-family='system-ui, -apple-system, "Segoe UI", Helvetica, Arial, sans-serif' font-size="13" fill="#f0f0ee" text-anchor="start" font-weight="700" style="">JEEBench</text>
<line x1="578.0" y1="132.0" x2="578.0" y2="356.0" stroke="#45443f" stroke-width="1.0"/>
<text x="578.0" y="371.0" font-family='system-ui, -apple-system, "Segoe UI", Helvetica, Arial, sans-serif' font-size="12" fill="#9a9992" text-anchor="middle" font-weight="normal" style="font-variant-numeric: tabular-nums;">0</text>
<line x1="647.5" y1="132.0" x2="647.5" y2="356.0" stroke="#2a2a28" stroke-width="1.0"/>
<text x="647.5" y="371.0" font-family='system-ui, -apple-system, "Segoe UI", Helvetica, Arial, sans-serif' font-size="12" fill="#9a9992" text-anchor="middle" font-weight="normal" style="font-variant-numeric: tabular-nums;">20</text>
<line x1="717.0" y1="132.0" x2="717.0" y2="356.0" stroke="#2a2a28" stroke-width="1.0"/>
<text x="717.0" y="371.0" font-family='system-ui, -apple-system, "Segoe UI", Helvetica, Arial, sans-serif' font-size="12" fill="#9a9992" text-anchor="middle" font-weight="normal" style="font-variant-numeric: tabular-nums;">40</text>
<line x1="786.5" y1="132.0" x2="786.5" y2="356.0" stroke="#2a2a28" stroke-width="1.0"/>
<text x="786.5" y="371.0" font-family='system-ui, -apple-system, "Segoe UI", Helvetica, Arial, sans-serif' font-size="12" fill="#9a9992" text-anchor="middle" font-weight="normal" style="font-variant-numeric: tabular-nums;">60</text>
<line x1="856.0" y1="132.0" x2="856.0" y2="356.0" stroke="#2a2a28" stroke-width="1.0"/>
<text x="856.0" y="371.0" font-family='system-ui, -apple-system, "Segoe UI", Helvetica, Arial, sans-serif' font-size="12" fill="#9a9992" text-anchor="middle" font-weight="normal" style="font-variant-numeric: tabular-nums;">80</text>
<line x1="695.5" y1="130.0" x2="695.5" y2="380.0" stroke="#c3c2b7" stroke-width="1.5" stroke-dasharray="4 3"/>
<text x="691.5" y="392.0" font-family='system-ui, -apple-system, "Segoe UI", Helvetica, Arial, sans-serif' font-size="12" fill="#c3c2b7" text-anchor="end" font-weight="600" style="" paint-order="stroke" stroke="#0d1117" stroke-width="3" stroke-linejoin="round">thinking on · 33.8</text>
<line x1="744.1" y1="130.0" x2="744.1" y2="396.0" stroke="#9a9992" stroke-width="1.2" stroke-dasharray="2 3"/>
<text x="740.1" y="410.0" font-family='system-ui, -apple-system, "Segoe UI", Helvetica, Arial, sans-serif' font-size="12" fill="#9a9992" text-anchor="end" font-weight="600" style="" paint-order="stroke" stroke="#0d1117" stroke-width="3" stroke-linejoin="round">thinking off · 47.8</text>
<path d="M578.0,139.0 H653.6 a4,4 0 0 1 4,4 V153.0 a4,4 0 0 1 -4,4 H578.0 Z" fill="#6e6d68"/>
<path d="M578.0,171.0 H649.1 a4,4 0 0 1 4,4 V185.0 a4,4 0 0 1 -4,4 H578.0 Z" fill="#6e6d68"/>
<path d="M578.0,203.0 H660.5 a4,4 0 0 1 4,4 V217.0 a4,4 0 0 1 -4,4 H578.0 Z" fill="#3987e5"/>
<path d="M578.0,235.0 H686.6 a4,4 0 0 1 4,4 V249.0 a4,4 0 0 1 -4,4 H578.0 Z" fill="#d95926"/>
<path d="M578.0,267.0 H697.4 a4,4 0 0 1 4,4 V281.0 a4,4 0 0 1 -4,4 H578.0 Z" fill="#3987e5"/>
<path d="M578.0,299.0 H731.8 a4,4 0 0 1 4,4 V313.0 a4,4 0 0 1 -4,4 H578.0 Z" fill="#d95926"/>
<path d="M578.0,331.0 H732.5 a4,4 0 0 1 4,4 V345.0 a4,4 0 0 1 -4,4 H578.0 Z" fill="#199e70"/>
<path d="M769.46,308.0 H774.46 V340.0 H769.46" fill="none" stroke="#c3c2b7" stroke-width="1.4"/>
<text x="780.5" y="328.0" font-family='system-ui, -apple-system, "Segoe UI", Helvetica, Arial, sans-serif' font-size="13" fill="#c3c2b7" text-anchor="start" font-weight="700" style="">tie</text>
<text x="663.6" y="152.5" font-family='system-ui, -apple-system, "Segoe UI", Helvetica, Arial, sans-serif' font-size="13" fill="#f0f0ee" text-anchor="start" font-weight="normal" style="font-variant-numeric: tabular-nums;" paint-order="stroke" stroke="#0d1117" stroke-width="3" stroke-linejoin="round">22.9</text>
<text x="659.1" y="184.5" font-family='system-ui, -apple-system, "Segoe UI", Helvetica, Arial, sans-serif' font-size="13" fill="#f0f0ee" text-anchor="start" font-weight="normal" style="font-variant-numeric: tabular-nums;" paint-order="stroke" stroke="#0d1117" stroke-width="3" stroke-linejoin="round">21.6</text>
<text x="670.5" y="216.5" font-family='system-ui, -apple-system, "Segoe UI", Helvetica, Arial, sans-serif' font-size="13" fill="#f0f0ee" text-anchor="start" font-weight="normal" style="font-variant-numeric: tabular-nums;" paint-order="stroke" stroke="#0d1117" stroke-width="3" stroke-linejoin="round">24.9</text>
<text x="696.6" y="248.5" font-family='system-ui, -apple-system, "Segoe UI", Helvetica, Arial, sans-serif' font-size="13" fill="#f0f0ee" text-anchor="start" font-weight="normal" style="font-variant-numeric: tabular-nums;" paint-order="stroke" stroke="#0d1117" stroke-width="3" stroke-linejoin="round">32.4</text>
<line x1="691.3" y1="276.0" x2="709.7" y2="276.0" stroke="#f0f0ee" stroke-width="1.6"/>
<line x1="691.3" y1="271.0" x2="691.3" y2="281.0" stroke="#f0f0ee" stroke-width="1.6"/>
<line x1="709.7" y1="271.0" x2="709.7" y2="281.0" stroke="#f0f0ee" stroke-width="1.6"/>
<text x="715.7" y="280.5" font-family='system-ui, -apple-system, "Segoe UI", Helvetica, Arial, sans-serif' font-size="13" fill="#f0f0ee" text-anchor="start" font-weight="normal" style="font-variant-numeric: tabular-nums;" paint-order="stroke" stroke="#0d1117" stroke-width="3" stroke-linejoin="round">35.5</text>
<text x="741.8" y="312.5" font-family='system-ui, -apple-system, "Segoe UI", Helvetica, Arial, sans-serif' font-size="13" fill="#f0f0ee" text-anchor="start" font-weight="normal" style="font-variant-numeric: tabular-nums;" paint-order="stroke" stroke="#0d1117" stroke-width="3" stroke-linejoin="round">45.4</text>
<text x="742.5" y="344.5" font-family='system-ui, -apple-system, "Segoe UI", Helvetica, Arial, sans-serif' font-size="13" fill="#f0f0ee" text-anchor="start" font-weight="normal" style="font-variant-numeric: tabular-nums;" paint-order="stroke" stroke="#0d1117" stroke-width="3" stroke-linejoin="round">45.6</text>
<text x="24.0" y="152.5" font-family='system-ui, -apple-system, "Segoe UI", Helvetica, Arial, sans-serif' font-size="13.5" fill="#f0f0ee" text-anchor="start" font-weight="normal" style="">Victim's answers only</text>
<text x="24.0" y="184.5" font-family='system-ui, -apple-system, "Segoe UI", Helvetica, Arial, sans-serif' font-size="13.5" fill="#f0f0ee" text-anchor="start" font-weight="normal" style="">Victim's summaries + answers</text>
<text x="24.0" y="216.5" font-family='system-ui, -apple-system, "Segoe UI", Helvetica, Arial, sans-serif' font-size="13.5" fill="#f0f0ee" text-anchor="start" font-weight="normal" style="">Forged traces · 1.5B surrogate</text>
<text x="24.0" y="248.5" font-family='system-ui, -apple-system, "Segoe UI", Helvetica, Arial, sans-serif' font-size="13.5" fill="#f0f0ee" text-anchor="start" font-weight="normal" style="">Plain distillation · 1.5B surrogate</text>
<text x="24.0" y="280.5" font-family='system-ui, -apple-system, "Segoe UI", Helvetica, Arial, sans-serif' font-size="13.5" fill="#f0f0ee" text-anchor="start" font-weight="normal" style="">Forged traces · 7B surrogate</text>
<text x="24.0" y="312.5" font-family='system-ui, -apple-system, "Segoe UI", Helvetica, Arial, sans-serif' font-size="13.5" fill="#f0f0ee" text-anchor="start" font-weight="normal" style="">Plain distillation · 7B surrogate</text>
<text x="24.0" y="344.5" font-family='system-ui, -apple-system, "Segoe UI", Helvetica, Arial, sans-serif' font-size="13.5" fill="#f0f0ee" text-anchor="start" font-weight="normal" style="">Oracle (victim's real traces)</text>
<text x="24.0" y="434.0" font-family='system-ui, -apple-system, "Segoe UI", Helvetica, Arial, sans-serif' font-size="11" fill="#9a9992" text-anchor="start" font-weight="normal" style="">⊢⊣ range across 3 evaluation seeds on one student: 3.4 (MATH500), 5.3 (JEEBench) points. Every student is scored with thinking on. Forged rows use the with-summary inverter.</text>
</svg>
